<?xml version="1.0" encoding="iso-8859-1"?>
<!-- Uploaded to: SVG Repo, www.svgrepo.com, Generator: SVG Repo Mixer Tools -->
<svg height="800px" width="800px" version="1.1" id="Layer_1" xmlns="http://www.w3.org/2000/svg" xmlns:xlink="http://www.w3.org/1999/xlink" 
	 viewBox="0 0 512.002 512.002" xml:space="preserve">
<path style="fill:#F78A68;" d="M366.834,161.253c89.002,26.412,134.389,113.619,134.389,113.619s-63.032,121.123-186.217,121.123
	c-15.561,0-31.256-1.928-46.795-5.309c-24.839-5.398-49.278-14.498-72.188-25.282c-40.367-19.019-75.956-43.293-100.507-61.924
	c-3.048,10.363-8.113,21.004-16.537,29.427c-24.506,24.506-67.987,20.76-67.987,20.76s-3.747-43.482,20.771-67.987
	c4.478-4.489,9.609-8.025,14.985-10.807c-5.375-2.793-10.507-6.328-14.985-10.807c-24.518-24.506-20.771-67.987-20.771-67.987
	s43.482-3.747,67.987,20.76c8.424,8.413,13.489,19.063,16.537,29.417c36.731-27.875,98.202-68.397,163.384-84.99
	c18.565-4.733,37.43-7.515,56.106-7.515C333.672,153.748,350.94,156.53,366.834,161.253z M411.479,274.86
	c0-15.849-12.857-28.695-28.707-28.695c-15.85,0-28.695,12.846-28.695,28.695s12.846,28.695,28.695,28.695
	S411.479,290.71,411.479,274.86z"/>
<path style="fill:#F7C0AF;" d="M382.772,246.165c15.849,0,28.707,12.846,28.707,28.695s-12.857,28.695-28.707,28.695
	c-15.85,0-28.695-12.846-28.695-28.695S366.922,246.165,382.772,246.165z"/>
<g>
	<path style="fill:#FB7B76;" d="M263.412,70.799c74.848,25.437,102.99,89.457,103.422,90.454
		c-15.894-4.721-33.162-7.503-51.828-7.503c-18.676,0-37.541,2.782-56.106,7.515c9.355-28.685,0.554-58.101-7.836-76.833
		C247.485,76.44,255.122,67.983,263.412,70.799z"/>
	<path style="fill:#FB7B76;" d="M268.212,390.684c0.111,0.787,5.476,40.854-65.814,50.996c-6.672,0.942-11.848-5.664-9.388-11.938
		c6.672-16.98,14.597-47.361,3.015-64.341C218.933,376.187,243.373,385.287,268.212,390.684z"/>
</g>
<path d="M0.253,354.59c0.449,5.222,4.592,9.365,9.813,9.813c1.981,0.172,48.799,3.858,76.535-23.877
	c5.552-5.553,10.202-12.225,13.899-19.932c22.563,16.361,53.393,36.525,87.9,53.102c6.146,12.494,1.112,35.468-5.427,52.111
	c-2.575,6.565-1.505,13.785,2.862,19.312c3.765,4.764,9.32,7.431,15.261,7.431c0.931,0,1.873-0.066,2.818-0.199
	c54.661-7.776,69.841-32.717,73.833-48.854c12.802,2.169,25.293,3.275,37.259,3.275c53.23,0,103.996-21.996,146.815-63.61
	c32.035-31.135,48.287-62.016,48.964-63.315c1.623-3.119,1.622-6.834-0.001-9.952c-0.182-0.35-4.559-8.713-13.092-20.978
	c-3.4-4.887-10.119-6.093-15.004-2.693c-4.887,3.4-6.092,10.117-2.693,15.003c3.921,5.636,6.874,10.358,8.826,13.636
	c-5.728,9.591-20.051,31.596-42.504,53.303c-39.155,37.854-83.334,57.047-131.311,57.047c-14.089,0-29.063-1.703-44.506-5.063
	c-0.022-0.004-0.043-0.01-0.065-0.015c-0.067-0.014-0.132-0.032-0.198-0.045c-21.91-4.786-45.333-13.007-69.619-24.44
	c-40.261-18.97-75.688-43.399-98.384-60.608c-7.987-6.6-13.871-13.989-13.923-14.052c-3.681-4.675-10.459-5.482-15.137-1.798
	c-4.677,3.683-5.482,10.461-1.798,15.137c0.235,0.3,4.773,6.02,11.611,12.455c-2.931,7.47-6.819,13.686-11.629,18.498
	c-14.17,14.17-36.831,17.204-49.694,17.712c0.508-12.871,3.549-35.53,17.731-49.706c3.387-3.395,7.526-6.371,12.307-8.845
	c3.574-1.851,5.821-5.539,5.824-9.564c0.003-4.026-2.237-7.718-5.81-9.574c-4.793-2.491-8.942-5.472-12.334-8.866
	c-14.175-14.169-17.214-36.83-17.72-49.693c12.871,0.507,35.53,3.545,49.7,17.715c6.111,6.103,10.757,14.459,13.813,24.834
	c1.001,3.399,3.609,6.088,6.974,7.195c3.367,1.105,7.06,0.488,9.882-1.653c38.463-29.189,97.36-67.305,159.531-83.132
	c18.692-4.764,36.672-7.181,53.444-7.181c16.59,0,32.994,2.375,48.76,7.058c0.01,0.002,0.018,0.005,0.027,0.009
	c0.082,0.024,0.163,0.055,0.246,0.078c26.989,8.058,52.601,22.911,76.129,44.161c4.416,3.989,11.234,3.643,15.223-0.775
	c3.99-4.418,3.643-11.234-0.774-15.224c-24.687-22.296-51.619-38.242-80.108-47.47c-8.198-15.997-39.61-68.655-107.632-91.772
	c-7.947-2.698-16.391-0.516-22.041,5.692c-5.583,6.133-7,14.987-3.609,22.553c7.333,16.373,14.485,40.194,8.955,63.595
	c-57.408,15.893-111.213,48.756-149.689,76.7c-3.699-7.709-8.346-14.375-13.894-19.917c-27.734-27.734-74.553-24.049-76.535-23.876
	c-5.222,0.449-9.365,4.592-9.813,9.813c-0.17,1.979-3.858,48.8,23.887,76.533c1.094,1.094,2.234,2.155,3.422,3.183
	c-1.187,1.029-2.327,2.091-3.419,3.186C-3.605,305.79,0.083,352.611,0.253,354.59z M204.253,430.497
	c3.943-10.715,9.306-28.823,8.374-46.062c15.083,6.111,29.817,11.001,44.055,14.605
	C254.006,408.282,243.589,424.127,204.253,430.497z M344.885,145.288c-9.849-1.537-19.834-2.319-29.878-2.319
	c-13.44,0-27.514,1.392-42.008,4.13c2.994-24.784-3.953-48.419-11.414-65.529C304.58,96.68,331.059,125.652,344.885,145.288z"/>
<path d="M463.297,239.638c2.133,2.492,5.154,3.771,8.196,3.771c2.479,0,4.971-0.85,7.002-2.589
	c4.523-3.87,5.053-10.674,1.184-15.198c-1.164-1.36-2.362-2.735-3.593-4.118c-3.957-4.447-10.768-4.847-15.218-0.891
	c-4.448,3.956-4.847,10.769-0.891,15.218C461.114,237.11,462.221,238.38,463.297,239.638z"/>
<path d="M343.298,274.86c0,21.766,17.709,39.474,39.474,39.474c21.772,0,39.486-17.709,39.486-39.474
	c0-21.766-17.714-39.474-39.486-39.474C361.007,235.386,343.298,253.094,343.298,274.86z M400.701,274.86
	c0,9.88-8.043,17.917-17.928,17.917c-9.879,0-17.917-8.038-17.917-17.917s8.038-17.917,17.917-17.917
	C392.658,256.944,400.701,264.98,400.701,274.86z"/>
<path d="M246.388,220.367c10.532,0,25.17,7.883,35.597,19.169c4.039,4.373,10.859,4.642,15.232,0.603
	c4.373-4.04,4.642-10.86,0.603-15.232c-14.873-16.097-34.58-26.097-51.431-26.097c-15.599,0-29.976,8.457-40.482,23.813
	c-9.649,14.104-14.964,32.66-14.964,52.249s5.315,38.144,14.964,52.249c10.506,15.356,24.883,23.813,40.482,23.813
	c16.852,0,36.559-10,51.431-26.097c4.04-4.372,3.77-11.192-0.603-15.232c-4.373-4.041-11.193-3.77-15.232,0.603
	c-10.429,11.287-25.066,19.169-35.597,19.169c-18.369,0-33.888-24.959-33.888-54.504S228.019,220.367,246.388,220.367z"/>
</svg>